<?xml version="1.0" encoding="utf-8"?>
<!-- Generator: Adobe Illustrator 24.3.0, SVG Export Plug-In . SVG Version: 6.00 Build 0)  -->
<svg version="1.1" id="Layer_1" xmlns="http://www.w3.org/2000/svg" xmlns:xlink="http://www.w3.org/1999/xlink" x="0px" y="0px"
	 viewBox="0 0 500 60" style="enable-background:new 0 0 500 60;" xml:space="preserve">
<style type="text/css">
	.st0{fill:#FFFFFF;}
</style>
<g>
	<path class="st0" d="M2.9,18.5v-5.9h22v5.9c0,0.6-0.2,1.1-0.6,1.5s-0.9,0.6-1.5,0.6c-0.6,0-1.1-0.2-1.6-0.6
		c-0.4-0.4-0.7-0.9-0.7-1.5V17H16v27.8c0,0.6-0.2,1.1-0.6,1.5c-0.4,0.4-0.9,0.6-1.5,0.6c-0.6,0-1.1-0.2-1.6-0.6
		c-0.4-0.4-0.6-0.9-0.6-1.5V17H7.2v1.5c0,0.6-0.2,1.1-0.6,1.5c-0.4,0.4-0.9,0.6-1.5,0.6c-0.6,0-1.1-0.2-1.5-0.6S2.9,19.1,2.9,18.5z"
		/>
	<path class="st0" d="M41.4,12.6H59c0.6,0,1.1,0.2,1.5,0.6c0.4,0.4,0.7,0.9,0.7,1.5c0,0.6-0.2,1.1-0.6,1.6S59.6,17,59,17h-6.6v25.7
		H59c0.6,0,1.1,0.2,1.5,0.6c0.4,0.4,0.6,0.9,0.6,1.5c0,0.6-0.2,1.1-0.6,1.5C60.1,46.7,59.6,47,59,47H41.4c-0.6,0-1.1-0.2-1.5-0.6
		c-0.4-0.4-0.6-0.9-0.6-1.5c0-0.6,0.2-1.1,0.6-1.5s0.9-0.6,1.5-0.6h6.7V17h-6.7c-0.6,0-1.1-0.2-1.5-0.6c-0.4-0.4-0.6-0.9-0.6-1.5
		c0-0.6,0.2-1.1,0.6-1.6C40.3,12.8,40.8,12.6,41.4,12.6z"/>
	<path class="st0" d="M75.6,18.5v-5.9h22v5.9c0,0.6-0.2,1.1-0.6,1.5s-0.9,0.6-1.5,0.6c-0.6,0-1.1-0.2-1.6-0.6
		c-0.4-0.4-0.7-0.9-0.7-1.5V17h-4.4v27.8c0,0.6-0.2,1.1-0.6,1.5c-0.4,0.4-0.9,0.6-1.5,0.6c-0.6,0-1.1-0.2-1.6-0.6
		c-0.4-0.4-0.6-0.9-0.6-1.5V17h-4.4v1.5c0,0.6-0.2,1.1-0.6,1.5c-0.4,0.4-0.9,0.6-1.5,0.6c-0.6,0-1.1-0.2-1.5-0.6
		S75.6,19.1,75.6,18.5z"/>
	<path class="st0" d="M112.1,43.9l8.8-29.8c0.3-1.1,1.1-1.6,2.2-1.6c1.1,0,1.8,0.5,2,1.4l8.7,30.2c0.1,0.2,0.1,0.4,0.1,0.6
		c0,0.6-0.2,1.1-0.6,1.5c-0.4,0.4-0.9,0.6-1.4,0.6c-1.1,0-1.9-0.5-2.2-1.6l-1.7-5.9h-10l-1.9,6.3c-0.1,0.3-0.3,0.5-0.7,0.8
		c-0.4,0.2-0.8,0.4-1.2,0.4c-0.6,0-1.2-0.2-1.6-0.6c-0.4-0.4-0.6-1-0.6-1.6C112,44.5,112.1,44.2,112.1,43.9z M123.1,22.6l-3.7,12.5
		h7.4L123.1,22.6z"/>
	<path class="st0" d="M170.3,14.8V47h-5.8l-11.7-26.7v24.5c0,0.6-0.2,1.1-0.6,1.5c-0.4,0.4-0.9,0.6-1.5,0.6c-0.6,0-1.1-0.2-1.5-0.6
		c-0.4-0.4-0.6-0.9-0.6-1.5V12.6h5.7l11.8,26.7V14.8c0-0.6,0.2-1.1,0.7-1.6c0.4-0.4,1-0.7,1.6-0.7c0.6,0,1.1,0.2,1.5,0.6
		C170.1,13.6,170.3,14.2,170.3,14.8z"/>
	<path class="st0" d="M226,12.6h11.3c1.4,0,2.7,0.6,3.9,1.7s1.9,2.6,1.9,4.2c0,0.6-0.2,1.1-0.7,1.6c-0.4,0.4-0.9,0.6-1.5,0.6
		c-0.7,0-1.3-0.2-1.5-0.5c-0.3-0.3-0.5-1-0.8-1.9c-0.3-0.9-0.8-1.4-1.7-1.4h-10.8c-0.5,0-0.8,0.2-0.8,0.5c0,0.2,0.1,0.5,0.3,0.7
		L242,38.9c0.8,1,1.2,2.1,1.2,3.2c0,1.3-0.5,2.4-1.4,3.4c-0.9,1-2,1.5-3.1,1.5h-11.7c-1.6,0-2.9-0.6-4.1-1.8
		c-1.1-1.2-1.7-2.5-1.7-3.9c0-1.6,0.8-2.4,2.3-2.4c0.6,0,1.1,0.2,1.5,0.6c0.4,0.4,0.6,0.9,0.6,1.5c0,0.5,0.2,0.9,0.5,1.2
		c0.3,0.3,0.7,0.5,1.2,0.5H238c0.5,0,0.7-0.2,0.7-0.6c0-0.2-0.1-0.4-0.3-0.7l-16.1-20.6c-0.8-1-1.1-2.1-1.1-3.2
		c0-1.3,0.5-2.5,1.5-3.5C223.5,13,224.7,12.6,226,12.6z"/>
	<path class="st0" d="M257.4,44.8V14.7c0-0.6,0.2-1.1,0.6-1.5c0.4-0.4,0.9-0.6,1.5-0.6c0.6,0,1.1,0.2,1.5,0.6
		c0.4,0.4,0.6,0.9,0.6,1.5v12.8H275V14.7c0-0.6,0.2-1.1,0.6-1.5c0.4-0.4,0.9-0.6,1.5-0.6c0.6,0,1.1,0.2,1.5,0.6
		c0.4,0.4,0.6,1,0.6,1.6v30c0,0.6-0.2,1.1-0.7,1.5c-0.4,0.4-0.9,0.6-1.5,0.6c-0.6,0-1.1-0.2-1.6-0.6c-0.4-0.4-0.6-0.9-0.6-1.5V31.9
		h-13.2v12.9c0,0.6-0.2,1.1-0.7,1.5c-0.4,0.4-1,0.6-1.6,0.6c-0.6,0-1.1-0.2-1.5-0.6C257.6,45.9,257.4,45.4,257.4,44.8z"/>
	<path class="st0" d="M310,15.7l4.8,9.8c0.7,1.3,1,2.8,1,4.3c0,1.5-0.3,3-1,4.3l-4.8,9.7c-1,2.1-2.7,3.2-5.2,3.2
		c-1.2,0-2.2-0.3-3.1-0.9c-0.9-0.6-1.6-1.4-2.1-2.3l-4.8-9.7c-0.6-1.3-1-2.7-1-4.3c0-1.6,0.3-3,1-4.3l4.8-9.8
		c1.1-2.1,2.8-3.2,5.2-3.2C307.2,12.6,309,13.6,310,15.7z M303.4,17.9l-4.5,9.2c-0.4,0.9-0.6,1.8-0.6,2.7c0,0.9,0.2,1.9,0.6,2.7
		l4.6,9.3c0.2,0.6,0.7,0.9,1.3,0.9c0.6,0,1-0.3,1.3-0.9l4.7-9.3c0.4-0.9,0.6-1.8,0.6-2.7c0-0.9-0.2-1.8-0.6-2.7l-4.6-9.2
		c-0.3-0.7-0.8-1-1.4-1S303.7,17.2,303.4,17.9z"/>
	<path class="st0" d="M330.3,44.8V12.6h15.4c1.8,0,3.3,0.6,4.6,1.9c1.3,1.3,1.9,2.8,1.9,4.6v8.2c0,1.8-0.6,3.3-1.9,4.6
		c-1.3,1.3-2.8,1.9-4.6,1.9h-11v11c0,0.6-0.2,1.1-0.6,1.5c-0.4,0.4-0.9,0.6-1.5,0.6c-0.6,0-1.1-0.2-1.6-0.6
		C330.5,45.9,330.3,45.4,330.3,44.8z M334.7,29.5h11c0.6,0,1.1-0.2,1.5-0.6s0.6-0.9,0.6-1.5v-8.2c0-0.6-0.2-1.1-0.6-1.5
		s-0.9-0.6-1.5-0.6h-11V29.5z"/>
	<path class="st0" d="M366.6,44.8V12.6h15.4c1.8,0,3.3,0.6,4.6,1.9c1.3,1.3,1.9,2.8,1.9,4.6v8.2c0,1.8-0.6,3.3-1.9,4.6
		c-1.3,1.3-2.8,1.9-4.6,1.9h-11v11c0,0.6-0.2,1.1-0.6,1.5c-0.4,0.4-0.9,0.6-1.5,0.6c-0.6,0-1.1-0.2-1.6-0.6
		C366.8,45.9,366.6,45.4,366.6,44.8z M371,29.5h11c0.6,0,1.1-0.2,1.5-0.6s0.6-0.9,0.6-1.5v-8.2c0-0.6-0.2-1.1-0.6-1.5
		s-0.9-0.6-1.5-0.6h-11V29.5z"/>
	<path class="st0" d="M422.7,17h-15.4v10.6h6.6c0.6,0,1.1,0.2,1.5,0.6c0.4,0.4,0.6,0.9,0.6,1.5c0,0.6-0.2,1.1-0.6,1.6
		c-0.4,0.4-0.9,0.6-1.5,0.6h-6.6v10.7h15.4c0.6,0,1.1,0.2,1.5,0.6c0.4,0.4,0.6,0.9,0.6,1.5c0,0.6-0.2,1.1-0.7,1.5
		c-0.4,0.4-1,0.6-1.6,0.6H403V12.6h19.7c0.6,0,1.1,0.2,1.6,0.7c0.4,0.4,0.7,1,0.7,1.6c0,0.6-0.2,1.1-0.7,1.5
		C423.9,16.7,423.3,17,422.7,17z"/>
	<path class="st0" d="M439.4,44.8V12.6h15.4c1.8,0,3.3,0.6,4.6,1.9c1.3,1.3,1.9,2.8,1.9,4.6v2.5c0,1.8-0.6,3.4-1.9,4.6
		c-1.3,1.3-2.8,1.9-4.6,1.9H452l8.9,15.3c0.3,0.4,0.4,0.9,0.4,1.3c0,0.6-0.2,1.1-0.7,1.5c-0.5,0.4-1,0.6-1.5,0.6
		c-0.9,0-1.5-0.4-2-1.2L447,28.2h-3.1v16.6c0,0.6-0.2,1.1-0.7,1.5c-0.4,0.4-1,0.6-1.6,0.6c-0.6,0-1.1-0.2-1.5-0.6
		C439.6,45.9,439.4,45.4,439.4,44.8z M443.8,23.8h11c0.6,0,1.1-0.2,1.5-0.6c0.4-0.4,0.6-0.9,0.6-1.5v-2.5c0-0.6-0.2-1.1-0.6-1.5
		s-0.9-0.6-1.5-0.6h-11V23.8z"/>
	<path class="st0" d="M480.6,12.6H492c1.4,0,2.7,0.6,3.9,1.7c1.2,1.2,1.9,2.6,1.9,4.2c0,0.6-0.2,1.1-0.7,1.6
		c-0.4,0.4-0.9,0.6-1.5,0.6c-0.7,0-1.3-0.2-1.5-0.5c-0.3-0.3-0.5-1-0.8-1.9c-0.3-0.9-0.8-1.4-1.7-1.4h-10.8c-0.5,0-0.8,0.2-0.8,0.5
		c0,0.2,0.1,0.5,0.3,0.7l16.2,20.6c0.8,1,1.2,2.1,1.2,3.2c0,1.3-0.5,2.4-1.4,3.4c-0.9,1-2,1.5-3.1,1.5h-11.7c-1.6,0-2.9-0.6-4.1-1.8
		c-1.1-1.2-1.7-2.5-1.7-3.9c0-1.6,0.8-2.4,2.3-2.4c0.6,0,1.1,0.2,1.5,0.6s0.6,0.9,0.6,1.5c0,0.5,0.2,0.9,0.5,1.2s0.7,0.5,1.2,0.5
		h10.8c0.5,0,0.7-0.2,0.7-0.6c0-0.2-0.1-0.4-0.3-0.7l-16.1-20.6c-0.8-1-1.1-2.1-1.1-3.2c0-1.3,0.5-2.5,1.5-3.5
		C478.1,13,479.3,12.6,480.6,12.6z"/>
</g>
</svg>
